<?xml version="1.0" encoding="utf-8"?>
<!-- Generator: Adobe Illustrator 24.2.3, SVG Export Plug-In . SVG Version: 6.00 Build 0)  -->
<svg version="1.1" id="Слой_1" xmlns="http://www.w3.org/2000/svg" xmlns:xlink="http://www.w3.org/1999/xlink" x="0px" y="0px"
	 width="1327.1px" height="500px" viewBox="0 0 1327.1 500" enable-background="new 0 0 1327.1 500" xml:space="preserve">
<g id="A">
	<g>
		<path fill="#4E7896" d="M117.5,381c-75.7,21.4,46.1,65,142.4,23.9c-9.5-3.5-18.6-7.9-27.2-13.2c-42.8,8.2-63.4,9-102.1,4.1
			C98.5,392.5,117.5,381,117.5,381L117.5,381z M105.1,327.6c-83.1,28,46.9,59.3,163,24.7c-7.5-2.5-14.2-6.7-19.8-12.3
			c-56.8,11.5-89.7,10.7-131.7,6.6C84.5,343.2,105.1,327.6,105.1,327.6L105.1,327.6z M332.2,421.5c51,23.1-111.1,69.2-307.9,37.1
			c-71.5-11.5,35.5-51.9,54.4-38.7c0,0-5.8,0-16.5,2.5C51.6,423.9,18.7,434.7,36,442c49.4,21.4,225.6,16.5,280.7,0
			c29.6-9.1,15.6-20.6,15.6-20.6L332.2,421.5z M126.5,271.5c0,0-35.4-2.5-78.2,18.1c-50.2,24.7,125.2,35.4,216.5,11.5
			c9.1-5.8,22.2-11.5,22.2-11.5s-37,6.6-74.1,9.9c-45.3,3.3-93.8,4.1-118.5,0.8C36.8,292.9,126.5,271.5,126.5,271.5L126.5,271.5z
			 M287.1,361.3c-0.8,1.6-1.6,2.5-1.6,2.5c123.5-32.2,77.5-114.4,18.9-93.9c-5.8,1.6-8.2,6.6-8.2,6.6s3.3-1.6,10.7-3.3
			C336.4,267.4,379.3,313.5,287.1,361.3L287.1,361.3z M135.6,491.3c-58.4-3.3-70-13.2-70-13.2c55.3,9.1,149,10.7,224.8-3.3
			c66.7-12.3,73.3-28.8,73.3-28.8C360.4,488,224.5,497.1,135.6,491.3L135.6,491.3z"/>
		<path fill="#F58219" d="M125.1,157.1c-23.2,34.6,10.6,71.6,57.5,113.6c-18.1-41.2-79.9-77.4,0-140.8
			C282.3,51.7,231.2-0.2,231.2-0.2C251.7,81.3,158.7,106.1,125.1,157.1z M204.7,236.1c-80.7-93,88.1-135,88.1-135
			C185.9,162.8,205.7,181,231.2,218c28,38.7-32.9,70-32.9,70s30.4-24.7,6.6-51.9L204.7,236.1z"/>
		<path fill="#4E7896" d="M839,406.4H797l-3.8-28.6c-22.9,19.1-47.7,34.3-80.1,34.3c-51.5,0-80.1-26.7-80.1-72.4
			c0-55.3,42-89.6,133.5-89.6h19.1v-24.8c0-30.5-17.2-45.8-53.4-45.8c-28.6,0-55.3,7.6-76.3,15.3l-9.5-34.3
			c28.6-11.4,61.1-21,99.1-21c66.7,0,93.4,32.4,93.4,80.1v186.8L839,406.4z M785.7,345.4v-61h-22.9c-61,0-76.3,19.1-76.3,45.8
			s15.3,41.9,40,41.9C745.7,372.1,766.6,362.6,785.7,345.4L785.7,345.4z M1018.1,406.5c38.1-82,64.8-175.4,80.1-261.2H1041
			c-7.5,68.6-26.6,139.2-51.4,207.8l-11.4-47.7l-49.6-160.1h-57.2l80.1,261.2h66.7L1018.1,406.5z M1326.9,406.4H1285l-3.8-28.6
			c-22.9,19.1-47.7,34.3-82,34.3c-51.5,0-78.2-26.7-78.2-72.4c0-55.3,42-89.6,133.5-89.6h19.1v-24.8c0-30.5-17.2-45.8-53.4-45.8
			c-28.6,0-55.3,7.6-78.2,15.3l-7.6-34.3c28.6-11.4,61.1-21,99.1-21c66.7,0,93.4,32.4,93.4,80.1v186.8L1326.9,406.4z M1273.7,345.4
			v-61h-22.9c-61,0-76.3,19.1-76.3,45.8s15.3,41.9,40,41.9C1233.7,372.1,1254.6,362.6,1273.7,345.4L1273.7,345.4z M574.1,450.3
			c15.2-22.9,21-45.7,21-104.8V51.9h-57.2v297.4c0,43.8-1.9,62.9-9.5,76.3c-7.6,15.3-26.7,32.4-45.8,43.8l24.8,30.5
			C536.1,490.3,558.9,473.2,574.1,450.3L574.1,450.3z"/>
	</g>
</g>
</svg>
